<mxfile host="Electron" agent="Mozilla/5.0 (Windows NT 10.0; Win64; x64) AppleWebKit/537.36 (KHTML, like Gecko) draw.io/27.0.9 Chrome/134.0.6998.205 Electron/35.4.0 Safari/537.36" version="27.0.9">
  <diagram name="Page-1" id="TSDoUGPZZNw93HGVGj58">
    <mxGraphModel dx="1389" dy="963" grid="1" gridSize="10" guides="1" tooltips="1" connect="1" arrows="1" fold="1" page="1" pageScale="1" pageWidth="1920" pageHeight="1200" math="0" shadow="0">
      <root>
        <mxCell id="0" />
        <mxCell id="1" parent="0" />
        <mxCell id="bJ59A3EvnZLdJ2s9BmQZ-1" value="gold.dim_customers" style="shape=table;startSize=30;container=1;collapsible=1;childLayout=tableLayout;fixedRows=1;rowLines=0;fontStyle=1;align=center;resizeLast=1;html=1;fontSize=18;shadow=0;swimlaneFillColor=none;rounded=1;fillColor=#f8cecc;strokeColor=#b85450;" vertex="1" parent="1">
          <mxGeometry x="130" y="230" width="250" height="620" as="geometry" />
        </mxCell>
        <mxCell id="bJ59A3EvnZLdJ2s9BmQZ-2" value="" style="shape=tableRow;horizontal=0;startSize=0;swimlaneHead=0;swimlaneBody=0;fillColor=none;collapsible=0;dropTarget=0;points=[[0,0.5],[1,0.5]];portConstraint=eastwest;top=0;left=0;right=0;bottom=1;fontSize=18;shadow=0;swimlaneFillColor=none;fontStyle=1" vertex="1" parent="bJ59A3EvnZLdJ2s9BmQZ-1">
          <mxGeometry y="30" width="250" height="60" as="geometry" />
        </mxCell>
        <mxCell id="bJ59A3EvnZLdJ2s9BmQZ-3" value="PK" style="shape=partialRectangle;connectable=0;fillColor=none;top=0;left=0;bottom=0;right=0;fontStyle=1;overflow=hidden;whiteSpace=wrap;html=1;fontSize=18;shadow=0;swimlaneFillColor=none;" vertex="1" parent="bJ59A3EvnZLdJ2s9BmQZ-2">
          <mxGeometry width="50" height="60" as="geometry">
            <mxRectangle width="50" height="60" as="alternateBounds" />
          </mxGeometry>
        </mxCell>
        <mxCell id="bJ59A3EvnZLdJ2s9BmQZ-4" value="customer_key" style="shape=partialRectangle;connectable=0;fillColor=none;top=0;left=0;bottom=0;right=0;align=left;spacingLeft=6;fontStyle=5;overflow=hidden;whiteSpace=wrap;html=1;fontSize=18;shadow=0;swimlaneFillColor=none;" vertex="1" parent="bJ59A3EvnZLdJ2s9BmQZ-2">
          <mxGeometry x="50" width="200" height="60" as="geometry">
            <mxRectangle width="200" height="60" as="alternateBounds" />
          </mxGeometry>
        </mxCell>
        <mxCell id="bJ59A3EvnZLdJ2s9BmQZ-5" value="" style="shape=tableRow;horizontal=0;startSize=0;swimlaneHead=0;swimlaneBody=0;fillColor=none;collapsible=0;dropTarget=0;points=[[0,0.5],[1,0.5]];portConstraint=eastwest;top=0;left=0;right=0;bottom=0;fontSize=18;shadow=0;swimlaneFillColor=none;fontStyle=1" vertex="1" parent="bJ59A3EvnZLdJ2s9BmQZ-1">
          <mxGeometry y="90" width="250" height="60" as="geometry" />
        </mxCell>
        <mxCell id="bJ59A3EvnZLdJ2s9BmQZ-6" value="" style="shape=partialRectangle;connectable=0;fillColor=none;top=0;left=0;bottom=0;right=0;editable=1;overflow=hidden;whiteSpace=wrap;html=1;fontSize=18;shadow=0;swimlaneFillColor=none;fontStyle=1" vertex="1" parent="bJ59A3EvnZLdJ2s9BmQZ-5">
          <mxGeometry width="50" height="60" as="geometry">
            <mxRectangle width="50" height="60" as="alternateBounds" />
          </mxGeometry>
        </mxCell>
        <mxCell id="bJ59A3EvnZLdJ2s9BmQZ-7" value="customer_id" style="shape=partialRectangle;connectable=0;fillColor=none;top=0;left=0;bottom=0;right=0;align=left;spacingLeft=6;overflow=hidden;whiteSpace=wrap;html=1;fontSize=18;shadow=0;swimlaneFillColor=none;fontStyle=1" vertex="1" parent="bJ59A3EvnZLdJ2s9BmQZ-5">
          <mxGeometry x="50" width="200" height="60" as="geometry">
            <mxRectangle width="200" height="60" as="alternateBounds" />
          </mxGeometry>
        </mxCell>
        <mxCell id="bJ59A3EvnZLdJ2s9BmQZ-8" value="" style="shape=tableRow;horizontal=0;startSize=0;swimlaneHead=0;swimlaneBody=0;fillColor=none;collapsible=0;dropTarget=0;points=[[0,0.5],[1,0.5]];portConstraint=eastwest;top=0;left=0;right=0;bottom=0;fontSize=18;shadow=0;swimlaneFillColor=none;fontStyle=1" vertex="1" parent="bJ59A3EvnZLdJ2s9BmQZ-1">
          <mxGeometry y="150" width="250" height="60" as="geometry" />
        </mxCell>
        <mxCell id="bJ59A3EvnZLdJ2s9BmQZ-9" value="" style="shape=partialRectangle;connectable=0;fillColor=none;top=0;left=0;bottom=0;right=0;editable=1;overflow=hidden;whiteSpace=wrap;html=1;fontSize=18;shadow=0;swimlaneFillColor=none;fontStyle=1" vertex="1" parent="bJ59A3EvnZLdJ2s9BmQZ-8">
          <mxGeometry width="50" height="60" as="geometry">
            <mxRectangle width="50" height="60" as="alternateBounds" />
          </mxGeometry>
        </mxCell>
        <mxCell id="bJ59A3EvnZLdJ2s9BmQZ-10" value="customer_number" style="shape=partialRectangle;connectable=0;fillColor=none;top=0;left=0;bottom=0;right=0;align=left;spacingLeft=6;overflow=hidden;whiteSpace=wrap;html=1;fontSize=18;shadow=0;swimlaneFillColor=none;fontStyle=1" vertex="1" parent="bJ59A3EvnZLdJ2s9BmQZ-8">
          <mxGeometry x="50" width="200" height="60" as="geometry">
            <mxRectangle width="200" height="60" as="alternateBounds" />
          </mxGeometry>
        </mxCell>
        <mxCell id="bJ59A3EvnZLdJ2s9BmQZ-11" value="" style="shape=tableRow;horizontal=0;startSize=0;swimlaneHead=0;swimlaneBody=0;fillColor=none;collapsible=0;dropTarget=0;points=[[0,0.5],[1,0.5]];portConstraint=eastwest;top=0;left=0;right=0;bottom=0;fontSize=18;shadow=0;swimlaneFillColor=none;fontStyle=1" vertex="1" parent="bJ59A3EvnZLdJ2s9BmQZ-1">
          <mxGeometry y="210" width="250" height="50" as="geometry" />
        </mxCell>
        <mxCell id="bJ59A3EvnZLdJ2s9BmQZ-12" value="" style="shape=partialRectangle;connectable=0;fillColor=none;top=0;left=0;bottom=0;right=0;editable=1;overflow=hidden;whiteSpace=wrap;html=1;fontSize=18;shadow=0;swimlaneFillColor=none;fontStyle=1" vertex="1" parent="bJ59A3EvnZLdJ2s9BmQZ-11">
          <mxGeometry width="50" height="50" as="geometry">
            <mxRectangle width="50" height="50" as="alternateBounds" />
          </mxGeometry>
        </mxCell>
        <mxCell id="bJ59A3EvnZLdJ2s9BmQZ-13" value="first_name" style="shape=partialRectangle;connectable=0;fillColor=none;top=0;left=0;bottom=0;right=0;align=left;spacingLeft=6;overflow=hidden;whiteSpace=wrap;html=1;fontSize=18;shadow=0;swimlaneFillColor=none;fontStyle=1" vertex="1" parent="bJ59A3EvnZLdJ2s9BmQZ-11">
          <mxGeometry x="50" width="200" height="50" as="geometry">
            <mxRectangle width="200" height="50" as="alternateBounds" />
          </mxGeometry>
        </mxCell>
        <mxCell id="bJ59A3EvnZLdJ2s9BmQZ-15" style="shape=tableRow;horizontal=0;startSize=0;swimlaneHead=0;swimlaneBody=0;fillColor=none;collapsible=0;dropTarget=0;points=[[0,0.5],[1,0.5]];portConstraint=eastwest;top=0;left=0;right=0;bottom=0;fontSize=18;shadow=0;swimlaneFillColor=none;fontStyle=1" vertex="1" parent="bJ59A3EvnZLdJ2s9BmQZ-1">
          <mxGeometry y="260" width="250" height="60" as="geometry" />
        </mxCell>
        <mxCell id="bJ59A3EvnZLdJ2s9BmQZ-16" style="shape=partialRectangle;connectable=0;fillColor=none;top=0;left=0;bottom=0;right=0;editable=1;overflow=hidden;whiteSpace=wrap;html=1;fontSize=18;shadow=0;swimlaneFillColor=none;fontStyle=1" vertex="1" parent="bJ59A3EvnZLdJ2s9BmQZ-15">
          <mxGeometry width="50" height="60" as="geometry">
            <mxRectangle width="50" height="60" as="alternateBounds" />
          </mxGeometry>
        </mxCell>
        <mxCell id="bJ59A3EvnZLdJ2s9BmQZ-17" value="last_name" style="shape=partialRectangle;connectable=0;fillColor=none;top=0;left=0;bottom=0;right=0;align=left;spacingLeft=6;overflow=hidden;whiteSpace=wrap;html=1;fontSize=18;shadow=0;swimlaneFillColor=none;fontStyle=1" vertex="1" parent="bJ59A3EvnZLdJ2s9BmQZ-15">
          <mxGeometry x="50" width="200" height="60" as="geometry">
            <mxRectangle width="200" height="60" as="alternateBounds" />
          </mxGeometry>
        </mxCell>
        <mxCell id="bJ59A3EvnZLdJ2s9BmQZ-18" style="shape=tableRow;horizontal=0;startSize=0;swimlaneHead=0;swimlaneBody=0;fillColor=none;collapsible=0;dropTarget=0;points=[[0,0.5],[1,0.5]];portConstraint=eastwest;top=0;left=0;right=0;bottom=0;fontSize=18;shadow=0;swimlaneFillColor=none;fontStyle=1" vertex="1" parent="bJ59A3EvnZLdJ2s9BmQZ-1">
          <mxGeometry y="320" width="250" height="60" as="geometry" />
        </mxCell>
        <mxCell id="bJ59A3EvnZLdJ2s9BmQZ-19" style="shape=partialRectangle;connectable=0;fillColor=none;top=0;left=0;bottom=0;right=0;editable=1;overflow=hidden;whiteSpace=wrap;html=1;fontSize=18;shadow=0;swimlaneFillColor=none;fontStyle=1" vertex="1" parent="bJ59A3EvnZLdJ2s9BmQZ-18">
          <mxGeometry width="50" height="60" as="geometry">
            <mxRectangle width="50" height="60" as="alternateBounds" />
          </mxGeometry>
        </mxCell>
        <mxCell id="bJ59A3EvnZLdJ2s9BmQZ-20" value="country" style="shape=partialRectangle;connectable=0;fillColor=none;top=0;left=0;bottom=0;right=0;align=left;spacingLeft=6;overflow=hidden;whiteSpace=wrap;html=1;fontSize=18;shadow=0;swimlaneFillColor=none;fontStyle=1" vertex="1" parent="bJ59A3EvnZLdJ2s9BmQZ-18">
          <mxGeometry x="50" width="200" height="60" as="geometry">
            <mxRectangle width="200" height="60" as="alternateBounds" />
          </mxGeometry>
        </mxCell>
        <mxCell id="bJ59A3EvnZLdJ2s9BmQZ-21" style="shape=tableRow;horizontal=0;startSize=0;swimlaneHead=0;swimlaneBody=0;fillColor=none;collapsible=0;dropTarget=0;points=[[0,0.5],[1,0.5]];portConstraint=eastwest;top=0;left=0;right=0;bottom=0;fontSize=18;shadow=0;swimlaneFillColor=none;fontStyle=1" vertex="1" parent="bJ59A3EvnZLdJ2s9BmQZ-1">
          <mxGeometry y="380" width="250" height="60" as="geometry" />
        </mxCell>
        <mxCell id="bJ59A3EvnZLdJ2s9BmQZ-22" style="shape=partialRectangle;connectable=0;fillColor=none;top=0;left=0;bottom=0;right=0;editable=1;overflow=hidden;whiteSpace=wrap;html=1;fontSize=18;shadow=0;swimlaneFillColor=none;fontStyle=1" vertex="1" parent="bJ59A3EvnZLdJ2s9BmQZ-21">
          <mxGeometry width="50" height="60" as="geometry">
            <mxRectangle width="50" height="60" as="alternateBounds" />
          </mxGeometry>
        </mxCell>
        <mxCell id="bJ59A3EvnZLdJ2s9BmQZ-23" value="marital_status" style="shape=partialRectangle;connectable=0;fillColor=none;top=0;left=0;bottom=0;right=0;align=left;spacingLeft=6;overflow=hidden;whiteSpace=wrap;html=1;fontSize=18;shadow=0;swimlaneFillColor=none;fontStyle=1" vertex="1" parent="bJ59A3EvnZLdJ2s9BmQZ-21">
          <mxGeometry x="50" width="200" height="60" as="geometry">
            <mxRectangle width="200" height="60" as="alternateBounds" />
          </mxGeometry>
        </mxCell>
        <mxCell id="bJ59A3EvnZLdJ2s9BmQZ-24" style="shape=tableRow;horizontal=0;startSize=0;swimlaneHead=0;swimlaneBody=0;fillColor=none;collapsible=0;dropTarget=0;points=[[0,0.5],[1,0.5]];portConstraint=eastwest;top=0;left=0;right=0;bottom=0;fontSize=18;shadow=0;swimlaneFillColor=none;fontStyle=1" vertex="1" parent="bJ59A3EvnZLdJ2s9BmQZ-1">
          <mxGeometry y="440" width="250" height="60" as="geometry" />
        </mxCell>
        <mxCell id="bJ59A3EvnZLdJ2s9BmQZ-25" style="shape=partialRectangle;connectable=0;fillColor=none;top=0;left=0;bottom=0;right=0;editable=1;overflow=hidden;whiteSpace=wrap;html=1;fontSize=18;shadow=0;swimlaneFillColor=none;fontStyle=1" vertex="1" parent="bJ59A3EvnZLdJ2s9BmQZ-24">
          <mxGeometry width="50" height="60" as="geometry">
            <mxRectangle width="50" height="60" as="alternateBounds" />
          </mxGeometry>
        </mxCell>
        <mxCell id="bJ59A3EvnZLdJ2s9BmQZ-26" value="gender" style="shape=partialRectangle;connectable=0;fillColor=none;top=0;left=0;bottom=0;right=0;align=left;spacingLeft=6;overflow=hidden;whiteSpace=wrap;html=1;fontSize=18;shadow=0;swimlaneFillColor=none;fontStyle=1" vertex="1" parent="bJ59A3EvnZLdJ2s9BmQZ-24">
          <mxGeometry x="50" width="200" height="60" as="geometry">
            <mxRectangle width="200" height="60" as="alternateBounds" />
          </mxGeometry>
        </mxCell>
        <mxCell id="bJ59A3EvnZLdJ2s9BmQZ-27" style="shape=tableRow;horizontal=0;startSize=0;swimlaneHead=0;swimlaneBody=0;fillColor=none;collapsible=0;dropTarget=0;points=[[0,0.5],[1,0.5]];portConstraint=eastwest;top=0;left=0;right=0;bottom=0;fontSize=18;shadow=0;swimlaneFillColor=none;fontStyle=1" vertex="1" parent="bJ59A3EvnZLdJ2s9BmQZ-1">
          <mxGeometry y="500" width="250" height="60" as="geometry" />
        </mxCell>
        <mxCell id="bJ59A3EvnZLdJ2s9BmQZ-28" style="shape=partialRectangle;connectable=0;fillColor=none;top=0;left=0;bottom=0;right=0;editable=1;overflow=hidden;whiteSpace=wrap;html=1;fontSize=18;shadow=0;swimlaneFillColor=none;fontStyle=1" vertex="1" parent="bJ59A3EvnZLdJ2s9BmQZ-27">
          <mxGeometry width="50" height="60" as="geometry">
            <mxRectangle width="50" height="60" as="alternateBounds" />
          </mxGeometry>
        </mxCell>
        <mxCell id="bJ59A3EvnZLdJ2s9BmQZ-29" value="birthdate" style="shape=partialRectangle;connectable=0;fillColor=none;top=0;left=0;bottom=0;right=0;align=left;spacingLeft=6;overflow=hidden;whiteSpace=wrap;html=1;fontSize=18;shadow=0;swimlaneFillColor=none;fontStyle=1" vertex="1" parent="bJ59A3EvnZLdJ2s9BmQZ-27">
          <mxGeometry x="50" width="200" height="60" as="geometry">
            <mxRectangle width="200" height="60" as="alternateBounds" />
          </mxGeometry>
        </mxCell>
        <mxCell id="bJ59A3EvnZLdJ2s9BmQZ-30" style="shape=tableRow;horizontal=0;startSize=0;swimlaneHead=0;swimlaneBody=0;fillColor=none;collapsible=0;dropTarget=0;points=[[0,0.5],[1,0.5]];portConstraint=eastwest;top=0;left=0;right=0;bottom=0;fontSize=18;shadow=0;swimlaneFillColor=none;fontStyle=1" vertex="1" parent="bJ59A3EvnZLdJ2s9BmQZ-1">
          <mxGeometry y="560" width="250" height="60" as="geometry" />
        </mxCell>
        <mxCell id="bJ59A3EvnZLdJ2s9BmQZ-31" style="shape=partialRectangle;connectable=0;fillColor=none;top=0;left=0;bottom=0;right=0;editable=1;overflow=hidden;whiteSpace=wrap;html=1;fontSize=18;shadow=0;swimlaneFillColor=none;fontStyle=1" vertex="1" parent="bJ59A3EvnZLdJ2s9BmQZ-30">
          <mxGeometry width="50" height="60" as="geometry">
            <mxRectangle width="50" height="60" as="alternateBounds" />
          </mxGeometry>
        </mxCell>
        <mxCell id="bJ59A3EvnZLdJ2s9BmQZ-32" value="create_date" style="shape=partialRectangle;connectable=0;fillColor=none;top=0;left=0;bottom=0;right=0;align=left;spacingLeft=6;overflow=hidden;whiteSpace=wrap;html=1;fontSize=18;shadow=0;swimlaneFillColor=none;fontStyle=1" vertex="1" parent="bJ59A3EvnZLdJ2s9BmQZ-30">
          <mxGeometry x="50" width="200" height="60" as="geometry">
            <mxRectangle width="200" height="60" as="alternateBounds" />
          </mxGeometry>
        </mxCell>
        <mxCell id="bJ59A3EvnZLdJ2s9BmQZ-33" value="gold.dim_products" style="shape=table;startSize=30;container=1;collapsible=1;childLayout=tableLayout;fixedRows=1;rowLines=0;fontStyle=1;align=center;resizeLast=1;html=1;fontSize=18;shadow=0;swimlaneFillColor=none;rounded=1;fillColor=#ffcccc;strokeColor=#36393d;" vertex="1" parent="1">
          <mxGeometry x="1180" y="230" width="250" height="690" as="geometry" />
        </mxCell>
        <mxCell id="bJ59A3EvnZLdJ2s9BmQZ-34" value="" style="shape=tableRow;horizontal=0;startSize=0;swimlaneHead=0;swimlaneBody=0;fillColor=none;collapsible=0;dropTarget=0;points=[[0,0.5],[1,0.5]];portConstraint=eastwest;top=0;left=0;right=0;bottom=1;fontSize=18;shadow=0;swimlaneFillColor=none;fontStyle=1" vertex="1" parent="bJ59A3EvnZLdJ2s9BmQZ-33">
          <mxGeometry y="30" width="250" height="60" as="geometry" />
        </mxCell>
        <mxCell id="bJ59A3EvnZLdJ2s9BmQZ-35" value="PK" style="shape=partialRectangle;connectable=0;fillColor=none;top=0;left=0;bottom=0;right=0;fontStyle=1;overflow=hidden;whiteSpace=wrap;html=1;fontSize=18;shadow=0;swimlaneFillColor=none;" vertex="1" parent="bJ59A3EvnZLdJ2s9BmQZ-34">
          <mxGeometry width="50" height="60" as="geometry">
            <mxRectangle width="50" height="60" as="alternateBounds" />
          </mxGeometry>
        </mxCell>
        <mxCell id="bJ59A3EvnZLdJ2s9BmQZ-36" value="product_key" style="shape=partialRectangle;connectable=0;fillColor=none;top=0;left=0;bottom=0;right=0;align=left;spacingLeft=6;fontStyle=5;overflow=hidden;whiteSpace=wrap;html=1;fontSize=18;shadow=0;swimlaneFillColor=none;" vertex="1" parent="bJ59A3EvnZLdJ2s9BmQZ-34">
          <mxGeometry x="50" width="200" height="60" as="geometry">
            <mxRectangle width="200" height="60" as="alternateBounds" />
          </mxGeometry>
        </mxCell>
        <mxCell id="bJ59A3EvnZLdJ2s9BmQZ-37" value="" style="shape=tableRow;horizontal=0;startSize=0;swimlaneHead=0;swimlaneBody=0;fillColor=none;collapsible=0;dropTarget=0;points=[[0,0.5],[1,0.5]];portConstraint=eastwest;top=0;left=0;right=0;bottom=0;fontSize=18;shadow=0;swimlaneFillColor=none;fontStyle=1" vertex="1" parent="bJ59A3EvnZLdJ2s9BmQZ-33">
          <mxGeometry y="90" width="250" height="60" as="geometry" />
        </mxCell>
        <mxCell id="bJ59A3EvnZLdJ2s9BmQZ-38" value="" style="shape=partialRectangle;connectable=0;fillColor=none;top=0;left=0;bottom=0;right=0;editable=1;overflow=hidden;whiteSpace=wrap;html=1;fontSize=18;shadow=0;swimlaneFillColor=none;fontStyle=1" vertex="1" parent="bJ59A3EvnZLdJ2s9BmQZ-37">
          <mxGeometry width="50" height="60" as="geometry">
            <mxRectangle width="50" height="60" as="alternateBounds" />
          </mxGeometry>
        </mxCell>
        <mxCell id="bJ59A3EvnZLdJ2s9BmQZ-39" value="product_id" style="shape=partialRectangle;connectable=0;fillColor=none;top=0;left=0;bottom=0;right=0;align=left;spacingLeft=6;overflow=hidden;whiteSpace=wrap;html=1;fontSize=18;shadow=0;swimlaneFillColor=none;fontStyle=1" vertex="1" parent="bJ59A3EvnZLdJ2s9BmQZ-37">
          <mxGeometry x="50" width="200" height="60" as="geometry">
            <mxRectangle width="200" height="60" as="alternateBounds" />
          </mxGeometry>
        </mxCell>
        <mxCell id="bJ59A3EvnZLdJ2s9BmQZ-40" value="" style="shape=tableRow;horizontal=0;startSize=0;swimlaneHead=0;swimlaneBody=0;fillColor=none;collapsible=0;dropTarget=0;points=[[0,0.5],[1,0.5]];portConstraint=eastwest;top=0;left=0;right=0;bottom=0;fontSize=18;shadow=0;swimlaneFillColor=none;fontStyle=1" vertex="1" parent="bJ59A3EvnZLdJ2s9BmQZ-33">
          <mxGeometry y="150" width="250" height="60" as="geometry" />
        </mxCell>
        <mxCell id="bJ59A3EvnZLdJ2s9BmQZ-41" value="" style="shape=partialRectangle;connectable=0;fillColor=none;top=0;left=0;bottom=0;right=0;editable=1;overflow=hidden;whiteSpace=wrap;html=1;fontSize=18;shadow=0;swimlaneFillColor=none;fontStyle=1" vertex="1" parent="bJ59A3EvnZLdJ2s9BmQZ-40">
          <mxGeometry width="50" height="60" as="geometry">
            <mxRectangle width="50" height="60" as="alternateBounds" />
          </mxGeometry>
        </mxCell>
        <mxCell id="bJ59A3EvnZLdJ2s9BmQZ-42" value="product_number" style="shape=partialRectangle;connectable=0;fillColor=none;top=0;left=0;bottom=0;right=0;align=left;spacingLeft=6;overflow=hidden;whiteSpace=wrap;html=1;fontSize=18;shadow=0;swimlaneFillColor=none;fontStyle=1" vertex="1" parent="bJ59A3EvnZLdJ2s9BmQZ-40">
          <mxGeometry x="50" width="200" height="60" as="geometry">
            <mxRectangle width="200" height="60" as="alternateBounds" />
          </mxGeometry>
        </mxCell>
        <mxCell id="bJ59A3EvnZLdJ2s9BmQZ-43" value="" style="shape=tableRow;horizontal=0;startSize=0;swimlaneHead=0;swimlaneBody=0;fillColor=none;collapsible=0;dropTarget=0;points=[[0,0.5],[1,0.5]];portConstraint=eastwest;top=0;left=0;right=0;bottom=0;fontSize=18;shadow=0;swimlaneFillColor=none;fontStyle=1" vertex="1" parent="bJ59A3EvnZLdJ2s9BmQZ-33">
          <mxGeometry y="210" width="250" height="60" as="geometry" />
        </mxCell>
        <mxCell id="bJ59A3EvnZLdJ2s9BmQZ-44" value="" style="shape=partialRectangle;connectable=0;fillColor=none;top=0;left=0;bottom=0;right=0;editable=1;overflow=hidden;whiteSpace=wrap;html=1;fontSize=18;shadow=0;swimlaneFillColor=none;fontStyle=1" vertex="1" parent="bJ59A3EvnZLdJ2s9BmQZ-43">
          <mxGeometry width="50" height="60" as="geometry">
            <mxRectangle width="50" height="60" as="alternateBounds" />
          </mxGeometry>
        </mxCell>
        <mxCell id="bJ59A3EvnZLdJ2s9BmQZ-45" value="product_name" style="shape=partialRectangle;connectable=0;fillColor=none;top=0;left=0;bottom=0;right=0;align=left;spacingLeft=6;overflow=hidden;whiteSpace=wrap;html=1;fontSize=18;shadow=0;swimlaneFillColor=none;fontStyle=1" vertex="1" parent="bJ59A3EvnZLdJ2s9BmQZ-43">
          <mxGeometry x="50" width="200" height="60" as="geometry">
            <mxRectangle width="200" height="60" as="alternateBounds" />
          </mxGeometry>
        </mxCell>
        <mxCell id="bJ59A3EvnZLdJ2s9BmQZ-46" style="shape=tableRow;horizontal=0;startSize=0;swimlaneHead=0;swimlaneBody=0;fillColor=none;collapsible=0;dropTarget=0;points=[[0,0.5],[1,0.5]];portConstraint=eastwest;top=0;left=0;right=0;bottom=0;fontSize=18;shadow=0;swimlaneFillColor=none;fontStyle=1" vertex="1" parent="bJ59A3EvnZLdJ2s9BmQZ-33">
          <mxGeometry y="270" width="250" height="60" as="geometry" />
        </mxCell>
        <mxCell id="bJ59A3EvnZLdJ2s9BmQZ-47" style="shape=partialRectangle;connectable=0;fillColor=none;top=0;left=0;bottom=0;right=0;editable=1;overflow=hidden;whiteSpace=wrap;html=1;fontSize=18;shadow=0;swimlaneFillColor=none;fontStyle=1" vertex="1" parent="bJ59A3EvnZLdJ2s9BmQZ-46">
          <mxGeometry width="50" height="60" as="geometry">
            <mxRectangle width="50" height="60" as="alternateBounds" />
          </mxGeometry>
        </mxCell>
        <mxCell id="bJ59A3EvnZLdJ2s9BmQZ-48" value="category_id" style="shape=partialRectangle;connectable=0;fillColor=none;top=0;left=0;bottom=0;right=0;align=left;spacingLeft=6;overflow=hidden;whiteSpace=wrap;html=1;fontSize=18;shadow=0;swimlaneFillColor=none;fontStyle=1" vertex="1" parent="bJ59A3EvnZLdJ2s9BmQZ-46">
          <mxGeometry x="50" width="200" height="60" as="geometry">
            <mxRectangle width="200" height="60" as="alternateBounds" />
          </mxGeometry>
        </mxCell>
        <mxCell id="bJ59A3EvnZLdJ2s9BmQZ-49" style="shape=tableRow;horizontal=0;startSize=0;swimlaneHead=0;swimlaneBody=0;fillColor=none;collapsible=0;dropTarget=0;points=[[0,0.5],[1,0.5]];portConstraint=eastwest;top=0;left=0;right=0;bottom=0;fontSize=18;shadow=0;swimlaneFillColor=none;fontStyle=1" vertex="1" parent="bJ59A3EvnZLdJ2s9BmQZ-33">
          <mxGeometry y="330" width="250" height="60" as="geometry" />
        </mxCell>
        <mxCell id="bJ59A3EvnZLdJ2s9BmQZ-50" style="shape=partialRectangle;connectable=0;fillColor=none;top=0;left=0;bottom=0;right=0;editable=1;overflow=hidden;whiteSpace=wrap;html=1;fontSize=18;shadow=0;swimlaneFillColor=none;fontStyle=1" vertex="1" parent="bJ59A3EvnZLdJ2s9BmQZ-49">
          <mxGeometry width="50" height="60" as="geometry">
            <mxRectangle width="50" height="60" as="alternateBounds" />
          </mxGeometry>
        </mxCell>
        <mxCell id="bJ59A3EvnZLdJ2s9BmQZ-51" value="category" style="shape=partialRectangle;connectable=0;fillColor=none;top=0;left=0;bottom=0;right=0;align=left;spacingLeft=6;overflow=hidden;whiteSpace=wrap;html=1;fontSize=18;shadow=0;swimlaneFillColor=none;fontStyle=1" vertex="1" parent="bJ59A3EvnZLdJ2s9BmQZ-49">
          <mxGeometry x="50" width="200" height="60" as="geometry">
            <mxRectangle width="200" height="60" as="alternateBounds" />
          </mxGeometry>
        </mxCell>
        <mxCell id="bJ59A3EvnZLdJ2s9BmQZ-52" style="shape=tableRow;horizontal=0;startSize=0;swimlaneHead=0;swimlaneBody=0;fillColor=none;collapsible=0;dropTarget=0;points=[[0,0.5],[1,0.5]];portConstraint=eastwest;top=0;left=0;right=0;bottom=0;fontSize=18;shadow=0;swimlaneFillColor=none;fontStyle=1" vertex="1" parent="bJ59A3EvnZLdJ2s9BmQZ-33">
          <mxGeometry y="390" width="250" height="60" as="geometry" />
        </mxCell>
        <mxCell id="bJ59A3EvnZLdJ2s9BmQZ-53" style="shape=partialRectangle;connectable=0;fillColor=none;top=0;left=0;bottom=0;right=0;editable=1;overflow=hidden;whiteSpace=wrap;html=1;fontSize=18;shadow=0;swimlaneFillColor=none;fontStyle=1" vertex="1" parent="bJ59A3EvnZLdJ2s9BmQZ-52">
          <mxGeometry width="50" height="60" as="geometry">
            <mxRectangle width="50" height="60" as="alternateBounds" />
          </mxGeometry>
        </mxCell>
        <mxCell id="bJ59A3EvnZLdJ2s9BmQZ-54" value="subcategory" style="shape=partialRectangle;connectable=0;fillColor=none;top=0;left=0;bottom=0;right=0;align=left;spacingLeft=6;overflow=hidden;whiteSpace=wrap;html=1;fontSize=18;shadow=0;swimlaneFillColor=none;fontStyle=1" vertex="1" parent="bJ59A3EvnZLdJ2s9BmQZ-52">
          <mxGeometry x="50" width="200" height="60" as="geometry">
            <mxRectangle width="200" height="60" as="alternateBounds" />
          </mxGeometry>
        </mxCell>
        <mxCell id="bJ59A3EvnZLdJ2s9BmQZ-55" style="shape=tableRow;horizontal=0;startSize=0;swimlaneHead=0;swimlaneBody=0;fillColor=none;collapsible=0;dropTarget=0;points=[[0,0.5],[1,0.5]];portConstraint=eastwest;top=0;left=0;right=0;bottom=0;fontSize=18;shadow=0;swimlaneFillColor=none;fontStyle=1" vertex="1" parent="bJ59A3EvnZLdJ2s9BmQZ-33">
          <mxGeometry y="450" width="250" height="60" as="geometry" />
        </mxCell>
        <mxCell id="bJ59A3EvnZLdJ2s9BmQZ-56" style="shape=partialRectangle;connectable=0;fillColor=none;top=0;left=0;bottom=0;right=0;editable=1;overflow=hidden;whiteSpace=wrap;html=1;fontSize=18;shadow=0;swimlaneFillColor=none;fontStyle=1" vertex="1" parent="bJ59A3EvnZLdJ2s9BmQZ-55">
          <mxGeometry width="50" height="60" as="geometry">
            <mxRectangle width="50" height="60" as="alternateBounds" />
          </mxGeometry>
        </mxCell>
        <mxCell id="bJ59A3EvnZLdJ2s9BmQZ-57" value="maintenance" style="shape=partialRectangle;connectable=0;fillColor=none;top=0;left=0;bottom=0;right=0;align=left;spacingLeft=6;overflow=hidden;whiteSpace=wrap;html=1;fontSize=18;shadow=0;swimlaneFillColor=none;fontStyle=1" vertex="1" parent="bJ59A3EvnZLdJ2s9BmQZ-55">
          <mxGeometry x="50" width="200" height="60" as="geometry">
            <mxRectangle width="200" height="60" as="alternateBounds" />
          </mxGeometry>
        </mxCell>
        <mxCell id="bJ59A3EvnZLdJ2s9BmQZ-58" style="shape=tableRow;horizontal=0;startSize=0;swimlaneHead=0;swimlaneBody=0;fillColor=none;collapsible=0;dropTarget=0;points=[[0,0.5],[1,0.5]];portConstraint=eastwest;top=0;left=0;right=0;bottom=0;fontSize=18;shadow=0;swimlaneFillColor=none;fontStyle=1" vertex="1" parent="bJ59A3EvnZLdJ2s9BmQZ-33">
          <mxGeometry y="510" width="250" height="60" as="geometry" />
        </mxCell>
        <mxCell id="bJ59A3EvnZLdJ2s9BmQZ-59" style="shape=partialRectangle;connectable=0;fillColor=none;top=0;left=0;bottom=0;right=0;editable=1;overflow=hidden;whiteSpace=wrap;html=1;fontSize=18;shadow=0;swimlaneFillColor=none;fontStyle=1" vertex="1" parent="bJ59A3EvnZLdJ2s9BmQZ-58">
          <mxGeometry width="50" height="60" as="geometry">
            <mxRectangle width="50" height="60" as="alternateBounds" />
          </mxGeometry>
        </mxCell>
        <mxCell id="bJ59A3EvnZLdJ2s9BmQZ-60" value="cost" style="shape=partialRectangle;connectable=0;fillColor=none;top=0;left=0;bottom=0;right=0;align=left;spacingLeft=6;overflow=hidden;whiteSpace=wrap;html=1;fontSize=18;shadow=0;swimlaneFillColor=none;fontStyle=1" vertex="1" parent="bJ59A3EvnZLdJ2s9BmQZ-58">
          <mxGeometry x="50" width="200" height="60" as="geometry">
            <mxRectangle width="200" height="60" as="alternateBounds" />
          </mxGeometry>
        </mxCell>
        <mxCell id="bJ59A3EvnZLdJ2s9BmQZ-61" style="shape=tableRow;horizontal=0;startSize=0;swimlaneHead=0;swimlaneBody=0;fillColor=none;collapsible=0;dropTarget=0;points=[[0,0.5],[1,0.5]];portConstraint=eastwest;top=0;left=0;right=0;bottom=0;fontSize=18;shadow=0;swimlaneFillColor=none;fontStyle=1" vertex="1" parent="bJ59A3EvnZLdJ2s9BmQZ-33">
          <mxGeometry y="570" width="250" height="60" as="geometry" />
        </mxCell>
        <mxCell id="bJ59A3EvnZLdJ2s9BmQZ-62" style="shape=partialRectangle;connectable=0;fillColor=none;top=0;left=0;bottom=0;right=0;editable=1;overflow=hidden;whiteSpace=wrap;html=1;fontSize=18;shadow=0;swimlaneFillColor=none;fontStyle=1" vertex="1" parent="bJ59A3EvnZLdJ2s9BmQZ-61">
          <mxGeometry width="50" height="60" as="geometry">
            <mxRectangle width="50" height="60" as="alternateBounds" />
          </mxGeometry>
        </mxCell>
        <mxCell id="bJ59A3EvnZLdJ2s9BmQZ-63" value="product_line" style="shape=partialRectangle;connectable=0;fillColor=none;top=0;left=0;bottom=0;right=0;align=left;spacingLeft=6;overflow=hidden;whiteSpace=wrap;html=1;fontSize=18;shadow=0;swimlaneFillColor=none;fontStyle=1" vertex="1" parent="bJ59A3EvnZLdJ2s9BmQZ-61">
          <mxGeometry x="50" width="200" height="60" as="geometry">
            <mxRectangle width="200" height="60" as="alternateBounds" />
          </mxGeometry>
        </mxCell>
        <mxCell id="bJ59A3EvnZLdJ2s9BmQZ-64" style="shape=tableRow;horizontal=0;startSize=0;swimlaneHead=0;swimlaneBody=0;fillColor=none;collapsible=0;dropTarget=0;points=[[0,0.5],[1,0.5]];portConstraint=eastwest;top=0;left=0;right=0;bottom=0;fontSize=18;shadow=0;swimlaneFillColor=none;fontStyle=1" vertex="1" parent="bJ59A3EvnZLdJ2s9BmQZ-33">
          <mxGeometry y="630" width="250" height="60" as="geometry" />
        </mxCell>
        <mxCell id="bJ59A3EvnZLdJ2s9BmQZ-65" style="shape=partialRectangle;connectable=0;fillColor=none;top=0;left=0;bottom=0;right=0;editable=1;overflow=hidden;whiteSpace=wrap;html=1;fontSize=18;shadow=0;swimlaneFillColor=none;fontStyle=1" vertex="1" parent="bJ59A3EvnZLdJ2s9BmQZ-64">
          <mxGeometry width="50" height="60" as="geometry">
            <mxRectangle width="50" height="60" as="alternateBounds" />
          </mxGeometry>
        </mxCell>
        <mxCell id="bJ59A3EvnZLdJ2s9BmQZ-66" value="start_date" style="shape=partialRectangle;connectable=0;fillColor=none;top=0;left=0;bottom=0;right=0;align=left;spacingLeft=6;overflow=hidden;whiteSpace=wrap;html=1;fontSize=18;shadow=0;swimlaneFillColor=none;fontStyle=1" vertex="1" parent="bJ59A3EvnZLdJ2s9BmQZ-64">
          <mxGeometry x="50" width="200" height="60" as="geometry">
            <mxRectangle width="200" height="60" as="alternateBounds" />
          </mxGeometry>
        </mxCell>
        <mxCell id="bJ59A3EvnZLdJ2s9BmQZ-67" value="gold.fact_sales" style="shape=table;startSize=30;container=1;collapsible=1;childLayout=tableLayout;fixedRows=1;rowLines=0;fontStyle=1;align=center;resizeLast=1;html=1;fontSize=18;shadow=0;swimlaneFillColor=none;rounded=1;fillColor=#cdeb8b;strokeColor=#36393d;" vertex="1" parent="1">
          <mxGeometry x="660" y="230" width="240" height="580" as="geometry" />
        </mxCell>
        <mxCell id="bJ59A3EvnZLdJ2s9BmQZ-71" value="" style="shape=tableRow;horizontal=0;startSize=0;swimlaneHead=0;swimlaneBody=0;fillColor=none;collapsible=0;dropTarget=0;points=[[0,0.5],[1,0.5]];portConstraint=eastwest;top=0;left=0;right=0;bottom=0;fontSize=18;shadow=0;swimlaneFillColor=none;fontStyle=1" vertex="1" parent="bJ59A3EvnZLdJ2s9BmQZ-67">
          <mxGeometry y="30" width="240" height="60" as="geometry" />
        </mxCell>
        <mxCell id="bJ59A3EvnZLdJ2s9BmQZ-72" value="" style="shape=partialRectangle;connectable=0;fillColor=none;top=0;left=0;bottom=0;right=0;editable=1;overflow=hidden;whiteSpace=wrap;html=1;fontSize=18;shadow=0;swimlaneFillColor=none;fontStyle=1" vertex="1" parent="bJ59A3EvnZLdJ2s9BmQZ-71">
          <mxGeometry width="40" height="60" as="geometry">
            <mxRectangle width="40" height="60" as="alternateBounds" />
          </mxGeometry>
        </mxCell>
        <mxCell id="bJ59A3EvnZLdJ2s9BmQZ-73" value="order_number" style="shape=partialRectangle;connectable=0;fillColor=none;top=0;left=0;bottom=0;right=0;align=left;spacingLeft=6;overflow=hidden;whiteSpace=wrap;html=1;fontSize=18;shadow=0;swimlaneFillColor=none;fontStyle=1" vertex="1" parent="bJ59A3EvnZLdJ2s9BmQZ-71">
          <mxGeometry x="40" width="200" height="60" as="geometry">
            <mxRectangle width="200" height="60" as="alternateBounds" />
          </mxGeometry>
        </mxCell>
        <mxCell id="bJ59A3EvnZLdJ2s9BmQZ-74" value="" style="shape=tableRow;horizontal=0;startSize=0;swimlaneHead=0;swimlaneBody=0;fillColor=none;collapsible=0;dropTarget=0;points=[[0,0.5],[1,0.5]];portConstraint=eastwest;top=0;left=0;right=0;bottom=0;fontSize=18;shadow=0;swimlaneFillColor=none;fontStyle=1" vertex="1" parent="bJ59A3EvnZLdJ2s9BmQZ-67">
          <mxGeometry y="90" width="240" height="60" as="geometry" />
        </mxCell>
        <mxCell id="bJ59A3EvnZLdJ2s9BmQZ-75" value="FK" style="shape=partialRectangle;connectable=0;fillColor=none;top=0;left=0;bottom=0;right=0;editable=1;overflow=hidden;whiteSpace=wrap;html=1;fontSize=18;shadow=0;swimlaneFillColor=none;fontStyle=1" vertex="1" parent="bJ59A3EvnZLdJ2s9BmQZ-74">
          <mxGeometry width="40" height="60" as="geometry">
            <mxRectangle width="40" height="60" as="alternateBounds" />
          </mxGeometry>
        </mxCell>
        <mxCell id="bJ59A3EvnZLdJ2s9BmQZ-76" value="product_key" style="shape=partialRectangle;connectable=0;fillColor=none;top=0;left=0;bottom=0;right=0;align=left;spacingLeft=6;overflow=hidden;whiteSpace=wrap;html=1;fontSize=18;shadow=0;swimlaneFillColor=none;fontStyle=1" vertex="1" parent="bJ59A3EvnZLdJ2s9BmQZ-74">
          <mxGeometry x="40" width="200" height="60" as="geometry">
            <mxRectangle width="200" height="60" as="alternateBounds" />
          </mxGeometry>
        </mxCell>
        <mxCell id="bJ59A3EvnZLdJ2s9BmQZ-77" value="" style="shape=tableRow;horizontal=0;startSize=0;swimlaneHead=0;swimlaneBody=0;fillColor=none;collapsible=0;dropTarget=0;points=[[0,0.5],[1,0.5]];portConstraint=eastwest;top=0;left=0;right=0;bottom=0;fontSize=18;shadow=0;swimlaneFillColor=none;fontStyle=1" vertex="1" parent="bJ59A3EvnZLdJ2s9BmQZ-67">
          <mxGeometry y="150" width="240" height="70" as="geometry" />
        </mxCell>
        <mxCell id="bJ59A3EvnZLdJ2s9BmQZ-78" value="FK" style="shape=partialRectangle;connectable=0;fillColor=none;top=0;left=0;bottom=0;right=0;editable=1;overflow=hidden;whiteSpace=wrap;html=1;fontSize=18;shadow=0;swimlaneFillColor=none;fontStyle=1" vertex="1" parent="bJ59A3EvnZLdJ2s9BmQZ-77">
          <mxGeometry width="40" height="70" as="geometry">
            <mxRectangle width="40" height="70" as="alternateBounds" />
          </mxGeometry>
        </mxCell>
        <mxCell id="bJ59A3EvnZLdJ2s9BmQZ-79" value="customer_key" style="shape=partialRectangle;connectable=0;fillColor=none;top=0;left=0;bottom=0;right=0;align=left;spacingLeft=6;overflow=hidden;whiteSpace=wrap;html=1;fontSize=18;shadow=0;swimlaneFillColor=none;fontStyle=1" vertex="1" parent="bJ59A3EvnZLdJ2s9BmQZ-77">
          <mxGeometry x="40" width="200" height="70" as="geometry">
            <mxRectangle width="200" height="70" as="alternateBounds" />
          </mxGeometry>
        </mxCell>
        <mxCell id="bJ59A3EvnZLdJ2s9BmQZ-80" style="shape=tableRow;horizontal=0;startSize=0;swimlaneHead=0;swimlaneBody=0;fillColor=none;collapsible=0;dropTarget=0;points=[[0,0.5],[1,0.5]];portConstraint=eastwest;top=0;left=0;right=0;bottom=0;fontSize=18;shadow=0;swimlaneFillColor=none;fontStyle=1" vertex="1" parent="bJ59A3EvnZLdJ2s9BmQZ-67">
          <mxGeometry y="220" width="240" height="60" as="geometry" />
        </mxCell>
        <mxCell id="bJ59A3EvnZLdJ2s9BmQZ-81" style="shape=partialRectangle;connectable=0;fillColor=none;top=0;left=0;bottom=0;right=0;editable=1;overflow=hidden;whiteSpace=wrap;html=1;fontSize=18;shadow=0;swimlaneFillColor=none;fontStyle=1" vertex="1" parent="bJ59A3EvnZLdJ2s9BmQZ-80">
          <mxGeometry width="40" height="60" as="geometry">
            <mxRectangle width="40" height="60" as="alternateBounds" />
          </mxGeometry>
        </mxCell>
        <mxCell id="bJ59A3EvnZLdJ2s9BmQZ-82" value="order_date" style="shape=partialRectangle;connectable=0;fillColor=none;top=0;left=0;bottom=0;right=0;align=left;spacingLeft=6;overflow=hidden;whiteSpace=wrap;html=1;fontSize=18;shadow=0;swimlaneFillColor=none;fontStyle=1" vertex="1" parent="bJ59A3EvnZLdJ2s9BmQZ-80">
          <mxGeometry x="40" width="200" height="60" as="geometry">
            <mxRectangle width="200" height="60" as="alternateBounds" />
          </mxGeometry>
        </mxCell>
        <mxCell id="bJ59A3EvnZLdJ2s9BmQZ-83" style="shape=tableRow;horizontal=0;startSize=0;swimlaneHead=0;swimlaneBody=0;fillColor=none;collapsible=0;dropTarget=0;points=[[0,0.5],[1,0.5]];portConstraint=eastwest;top=0;left=0;right=0;bottom=0;fontSize=18;shadow=0;swimlaneFillColor=none;fontStyle=1" vertex="1" parent="bJ59A3EvnZLdJ2s9BmQZ-67">
          <mxGeometry y="280" width="240" height="60" as="geometry" />
        </mxCell>
        <mxCell id="bJ59A3EvnZLdJ2s9BmQZ-84" style="shape=partialRectangle;connectable=0;fillColor=none;top=0;left=0;bottom=0;right=0;editable=1;overflow=hidden;whiteSpace=wrap;html=1;fontSize=18;shadow=0;swimlaneFillColor=none;fontStyle=1" vertex="1" parent="bJ59A3EvnZLdJ2s9BmQZ-83">
          <mxGeometry width="40" height="60" as="geometry">
            <mxRectangle width="40" height="60" as="alternateBounds" />
          </mxGeometry>
        </mxCell>
        <mxCell id="bJ59A3EvnZLdJ2s9BmQZ-85" value="shipping_date" style="shape=partialRectangle;connectable=0;fillColor=none;top=0;left=0;bottom=0;right=0;align=left;spacingLeft=6;overflow=hidden;whiteSpace=wrap;html=1;fontSize=18;shadow=0;swimlaneFillColor=none;fontStyle=1" vertex="1" parent="bJ59A3EvnZLdJ2s9BmQZ-83">
          <mxGeometry x="40" width="200" height="60" as="geometry">
            <mxRectangle width="200" height="60" as="alternateBounds" />
          </mxGeometry>
        </mxCell>
        <mxCell id="bJ59A3EvnZLdJ2s9BmQZ-86" style="shape=tableRow;horizontal=0;startSize=0;swimlaneHead=0;swimlaneBody=0;fillColor=none;collapsible=0;dropTarget=0;points=[[0,0.5],[1,0.5]];portConstraint=eastwest;top=0;left=0;right=0;bottom=0;fontSize=18;shadow=0;swimlaneFillColor=none;fontStyle=1" vertex="1" parent="bJ59A3EvnZLdJ2s9BmQZ-67">
          <mxGeometry y="340" width="240" height="60" as="geometry" />
        </mxCell>
        <mxCell id="bJ59A3EvnZLdJ2s9BmQZ-87" style="shape=partialRectangle;connectable=0;fillColor=none;top=0;left=0;bottom=0;right=0;editable=1;overflow=hidden;whiteSpace=wrap;html=1;fontSize=18;shadow=0;swimlaneFillColor=none;fontStyle=1" vertex="1" parent="bJ59A3EvnZLdJ2s9BmQZ-86">
          <mxGeometry width="40" height="60" as="geometry">
            <mxRectangle width="40" height="60" as="alternateBounds" />
          </mxGeometry>
        </mxCell>
        <mxCell id="bJ59A3EvnZLdJ2s9BmQZ-88" value="due_date" style="shape=partialRectangle;connectable=0;fillColor=none;top=0;left=0;bottom=0;right=0;align=left;spacingLeft=6;overflow=hidden;whiteSpace=wrap;html=1;fontSize=18;shadow=0;swimlaneFillColor=none;fontStyle=1" vertex="1" parent="bJ59A3EvnZLdJ2s9BmQZ-86">
          <mxGeometry x="40" width="200" height="60" as="geometry">
            <mxRectangle width="200" height="60" as="alternateBounds" />
          </mxGeometry>
        </mxCell>
        <mxCell id="bJ59A3EvnZLdJ2s9BmQZ-89" style="shape=tableRow;horizontal=0;startSize=0;swimlaneHead=0;swimlaneBody=0;fillColor=none;collapsible=0;dropTarget=0;points=[[0,0.5],[1,0.5]];portConstraint=eastwest;top=0;left=0;right=0;bottom=0;fontSize=18;shadow=0;swimlaneFillColor=none;fontStyle=1" vertex="1" parent="bJ59A3EvnZLdJ2s9BmQZ-67">
          <mxGeometry y="400" width="240" height="60" as="geometry" />
        </mxCell>
        <mxCell id="bJ59A3EvnZLdJ2s9BmQZ-90" style="shape=partialRectangle;connectable=0;fillColor=none;top=0;left=0;bottom=0;right=0;editable=1;overflow=hidden;whiteSpace=wrap;html=1;fontSize=18;shadow=0;swimlaneFillColor=none;fontStyle=1" vertex="1" parent="bJ59A3EvnZLdJ2s9BmQZ-89">
          <mxGeometry width="40" height="60" as="geometry">
            <mxRectangle width="40" height="60" as="alternateBounds" />
          </mxGeometry>
        </mxCell>
        <mxCell id="bJ59A3EvnZLdJ2s9BmQZ-91" value="sales_amount" style="shape=partialRectangle;connectable=0;fillColor=none;top=0;left=0;bottom=0;right=0;align=left;spacingLeft=6;overflow=hidden;whiteSpace=wrap;html=1;fontSize=18;shadow=0;swimlaneFillColor=none;fontStyle=1" vertex="1" parent="bJ59A3EvnZLdJ2s9BmQZ-89">
          <mxGeometry x="40" width="200" height="60" as="geometry">
            <mxRectangle width="200" height="60" as="alternateBounds" />
          </mxGeometry>
        </mxCell>
        <mxCell id="bJ59A3EvnZLdJ2s9BmQZ-92" style="shape=tableRow;horizontal=0;startSize=0;swimlaneHead=0;swimlaneBody=0;fillColor=none;collapsible=0;dropTarget=0;points=[[0,0.5],[1,0.5]];portConstraint=eastwest;top=0;left=0;right=0;bottom=0;fontSize=18;shadow=0;swimlaneFillColor=none;fontStyle=1" vertex="1" parent="bJ59A3EvnZLdJ2s9BmQZ-67">
          <mxGeometry y="460" width="240" height="60" as="geometry" />
        </mxCell>
        <mxCell id="bJ59A3EvnZLdJ2s9BmQZ-93" style="shape=partialRectangle;connectable=0;fillColor=none;top=0;left=0;bottom=0;right=0;editable=1;overflow=hidden;whiteSpace=wrap;html=1;fontSize=18;shadow=0;swimlaneFillColor=none;fontStyle=1" vertex="1" parent="bJ59A3EvnZLdJ2s9BmQZ-92">
          <mxGeometry width="40" height="60" as="geometry">
            <mxRectangle width="40" height="60" as="alternateBounds" />
          </mxGeometry>
        </mxCell>
        <mxCell id="bJ59A3EvnZLdJ2s9BmQZ-94" value="quantity" style="shape=partialRectangle;connectable=0;fillColor=none;top=0;left=0;bottom=0;right=0;align=left;spacingLeft=6;overflow=hidden;whiteSpace=wrap;html=1;fontSize=18;shadow=0;swimlaneFillColor=none;fontStyle=1" vertex="1" parent="bJ59A3EvnZLdJ2s9BmQZ-92">
          <mxGeometry x="40" width="200" height="60" as="geometry">
            <mxRectangle width="200" height="60" as="alternateBounds" />
          </mxGeometry>
        </mxCell>
        <mxCell id="bJ59A3EvnZLdJ2s9BmQZ-95" style="shape=tableRow;horizontal=0;startSize=0;swimlaneHead=0;swimlaneBody=0;fillColor=none;collapsible=0;dropTarget=0;points=[[0,0.5],[1,0.5]];portConstraint=eastwest;top=0;left=0;right=0;bottom=0;fontSize=18;shadow=0;swimlaneFillColor=none;fontStyle=1" vertex="1" parent="bJ59A3EvnZLdJ2s9BmQZ-67">
          <mxGeometry y="520" width="240" height="60" as="geometry" />
        </mxCell>
        <mxCell id="bJ59A3EvnZLdJ2s9BmQZ-96" style="shape=partialRectangle;connectable=0;fillColor=none;top=0;left=0;bottom=0;right=0;editable=1;overflow=hidden;whiteSpace=wrap;html=1;fontSize=18;shadow=0;swimlaneFillColor=none;fontStyle=1" vertex="1" parent="bJ59A3EvnZLdJ2s9BmQZ-95">
          <mxGeometry width="40" height="60" as="geometry">
            <mxRectangle width="40" height="60" as="alternateBounds" />
          </mxGeometry>
        </mxCell>
        <mxCell id="bJ59A3EvnZLdJ2s9BmQZ-97" value="price" style="shape=partialRectangle;connectable=0;fillColor=none;top=0;left=0;bottom=0;right=0;align=left;spacingLeft=6;overflow=hidden;whiteSpace=wrap;html=1;fontSize=18;shadow=0;swimlaneFillColor=none;fontStyle=1" vertex="1" parent="bJ59A3EvnZLdJ2s9BmQZ-95">
          <mxGeometry x="40" width="200" height="60" as="geometry">
            <mxRectangle width="200" height="60" as="alternateBounds" />
          </mxGeometry>
        </mxCell>
        <mxCell id="bJ59A3EvnZLdJ2s9BmQZ-101" value="" style="edgeStyle=entityRelationEdgeStyle;fontSize=14;html=1;endArrow=ERzeroToMany;startArrow=ERmandOne;rounded=0;exitX=1;exitY=0.5;exitDx=0;exitDy=0;entryX=0;entryY=0.5;entryDx=0;entryDy=0;strokeWidth=2;" edge="1" parent="1" source="bJ59A3EvnZLdJ2s9BmQZ-2" target="bJ59A3EvnZLdJ2s9BmQZ-77">
          <mxGeometry width="100" height="100" relative="1" as="geometry">
            <mxPoint x="480" y="590" as="sourcePoint" />
            <mxPoint x="580" y="490" as="targetPoint" />
          </mxGeometry>
        </mxCell>
        <mxCell id="bJ59A3EvnZLdJ2s9BmQZ-102" value="" style="edgeStyle=entityRelationEdgeStyle;fontSize=14;html=1;endArrow=ERzeroToMany;startArrow=ERmandOne;rounded=0;exitX=0;exitY=0.5;exitDx=0;exitDy=0;entryX=1;entryY=0.5;entryDx=0;entryDy=0;strokeWidth=2;" edge="1" parent="1" source="bJ59A3EvnZLdJ2s9BmQZ-34" target="bJ59A3EvnZLdJ2s9BmQZ-74">
          <mxGeometry width="100" height="100" relative="1" as="geometry">
            <mxPoint x="1060" y="350" as="sourcePoint" />
            <mxPoint x="980" y="340" as="targetPoint" />
            <Array as="points">
              <mxPoint x="1180" y="290" />
            </Array>
          </mxGeometry>
        </mxCell>
        <mxCell id="bJ59A3EvnZLdJ2s9BmQZ-103" value="&lt;h1 style=&quot;margin-top: 0px;&quot;&gt;&lt;u&gt;Sales Calculation&lt;/u&gt;&lt;/h1&gt;&lt;p&gt;&lt;font style=&quot;font-size: 20px;&quot;&gt;Sales = Quantity * Price&lt;/font&gt;&lt;/p&gt;" style="text;html=1;whiteSpace=wrap;overflow=hidden;rounded=0;" vertex="1" parent="1">
          <mxGeometry x="680" y="870" width="250" height="120" as="geometry" />
        </mxCell>
        <mxCell id="bJ59A3EvnZLdJ2s9BmQZ-104" value="" style="endArrow=none;dashed=1;html=1;rounded=0;strokeWidth=2;" edge="1" parent="1">
          <mxGeometry width="50" height="50" relative="1" as="geometry">
            <mxPoint x="810" y="860" as="sourcePoint" />
            <mxPoint x="820" y="680" as="targetPoint" />
          </mxGeometry>
        </mxCell>
        <mxCell id="bJ59A3EvnZLdJ2s9BmQZ-105" value="&lt;font style=&quot;&quot;&gt;&lt;b style=&quot;&quot;&gt;&lt;span style=&quot;font-size: 41px;&quot;&gt;Sales Data Mart &lt;/span&gt;&lt;font style=&quot;font-size: 36px;&quot;&gt;(Star Schema)&lt;/font&gt;&lt;/b&gt;&lt;/font&gt;" style="text;html=1;align=center;verticalAlign=middle;whiteSpace=wrap;rounded=0;" vertex="1" parent="1">
          <mxGeometry x="110" y="30" width="710" height="110" as="geometry" />
        </mxCell>
      </root>
    </mxGraphModel>
  </diagram>
</mxfile>
